<svg width="450" height="355" viewBox="0 0 450 355" fill="none" xmlns="http://www.w3.org/2000/svg">
<g clip-path="url(#clip0_2812_82)">
<path d="M449.287 354.815L0.713331 355C0.524501 355 0.343596 354.924 0.210266 354.79C0.0769364 354.656 0.00205994 354.474 0.00205994 354.284C0.00205994 354.095 0.0769364 353.913 0.210266 353.779C0.343596 353.645 0.524501 353.569 0.713331 353.569L449.287 353.384C449.476 353.384 449.656 353.46 449.79 353.594C449.923 353.728 449.998 353.91 449.998 354.1C449.998 354.289 449.923 354.471 449.79 354.605C449.656 354.739 449.476 354.815 449.287 354.815Z" fill="#CACACA"/>
<path d="M361.644 339.631V300.91C361.645 300.126 361.956 299.375 362.508 298.821C363.06 298.267 363.809 297.955 364.59 297.954H393.732C394.513 297.955 395.262 298.267 395.814 298.821C396.366 299.375 396.677 300.126 396.678 300.91V339.631C396.677 340.415 396.366 341.166 395.814 341.721C395.262 342.275 394.513 342.586 393.732 342.587H364.59C363.809 342.586 363.06 342.275 362.508 341.721C361.956 341.166 361.645 340.415 361.644 339.631Z" fill="#E6E6E6"/>
<path d="M363.879 327.936V303.042C363.88 302.308 364.171 301.605 364.688 301.086C365.206 300.567 365.907 300.275 366.638 300.274H391.683C392.415 300.275 393.116 300.567 393.633 301.086C394.151 301.605 394.442 302.308 394.442 303.042V337.499C394.442 338.233 394.151 338.937 393.633 339.456C393.116 339.975 392.415 340.267 391.683 340.267H376.168C372.91 340.264 369.787 338.963 367.483 336.652C365.179 334.34 363.883 331.205 363.879 327.936Z" fill="white"/>
<path d="M367.935 309.988C367.935 309.271 368.22 308.583 368.725 308.076C369.23 307.569 369.916 307.283 370.631 307.283H388.004C388.719 307.283 389.405 307.568 389.911 308.075C390.416 308.582 390.7 309.271 390.7 309.988C390.7 310.705 390.416 311.394 389.911 311.901C389.405 312.408 388.719 312.693 388.004 312.693H370.631C369.916 312.692 369.23 312.407 368.725 311.9C368.22 311.393 367.935 310.705 367.935 309.988Z" fill="#E6E6E6"/>
<path d="M367.935 318.404C367.935 317.687 368.22 317 368.725 316.492C369.23 315.985 369.916 315.7 370.631 315.699H388.004C388.719 315.699 389.405 315.984 389.911 316.492C390.416 316.999 390.7 317.687 390.7 318.404C390.7 319.122 390.416 319.81 389.911 320.317C389.405 320.825 388.719 321.11 388.004 321.11H370.631C369.916 321.109 369.23 320.824 368.725 320.317C368.22 319.809 367.935 319.122 367.935 318.404Z" fill="#E6E6E6"/>
<path d="M367.935 326.821C367.935 326.103 368.22 325.416 368.725 324.908C369.23 324.401 369.916 324.116 370.631 324.115H388.004C388.719 324.115 389.405 324.4 389.911 324.908C390.416 325.415 390.7 326.103 390.7 326.821C390.7 327.538 390.416 328.226 389.911 328.733C389.405 329.241 388.719 329.526 388.004 329.526H370.631C369.916 329.525 369.23 329.24 368.725 328.733C368.22 328.225 367.935 327.538 367.935 326.821Z" fill="#E6E6E6"/>
<path d="M367.047 139.021C356.071 157.005 345.137 192.643 329.903 193.895C309.457 195.574 292.759 159.606 292.759 139.021C292.759 129.135 296.672 119.655 303.638 112.665C310.604 105.675 320.052 101.748 329.903 101.748C350.417 101.748 377.761 121.466 367.047 139.021Z" fill="#CCCCCC"/>
<path d="M334.995 200.424C331.494 200.424 328.027 201.116 324.793 202.46C321.558 203.805 318.619 205.775 316.144 208.259C313.668 210.744 311.705 213.693 310.365 216.938C309.025 220.184 308.335 223.663 308.335 227.176L324.511 308.635V345.524C322.806 345.929 321.287 346.9 320.2 348.278C319.113 349.657 318.521 351.364 318.52 353.122H332.898V308.635H342.484V345.408C340.649 345.694 338.977 346.628 337.768 348.043C336.56 349.457 335.895 351.259 335.894 353.122H350.871V308.635L361.655 227.176C361.655 223.663 360.965 220.184 359.626 216.938C358.286 213.693 356.322 210.743 353.847 208.259C351.371 205.775 348.432 203.805 345.198 202.46C341.963 201.116 338.496 200.424 334.995 200.424Z" fill="#CCCCCC"/>
<path d="M258.755 221.197C256.76 219.198 253.155 217.858 249.025 217.858C242.738 217.858 237.642 220.953 237.642 224.771C237.642 228.59 242.738 231.685 249.025 231.685C251.933 231.75 254.802 230.995 257.304 229.506L257.301 229.541L319.962 232.646L320.797 224.271L258.755 221.197Z" fill="#CCCCCC"/>
<path d="M357.618 288.965C356.167 291.39 355.741 295.225 356.738 299.246C358.256 305.368 362.48 309.583 366.172 308.662C369.864 307.74 371.627 302.03 370.109 295.908C369.47 293.06 368.047 290.449 366.003 288.372L366.038 288.367L353.912 226.599L345.611 227.808L357.618 288.965Z" fill="#CCCCCC"/>
<path d="M338.176 123.107C339.004 119.657 336.342 116.509 333.209 115.458C329.069 114.071 324.741 116.019 320.724 116.905C318.653 117.362 316.458 117.591 314.414 116.881C312.889 116.316 311.57 115.3 310.631 113.969C308.402 110.897 308.289 106.985 309.459 103.473C311.739 96.6219 318.172 91.6324 325.088 90.1684C333.382 88.4125 341.41 92.5737 348.872 95.6476L356.073 98.6144C358.278 99.5226 360.531 100.36 362.664 101.432C366.088 103.154 369.974 106.586 368.567 110.893C368.206 111.999 369.941 112.473 370.3 111.373C371.532 107.601 369.319 103.801 366.363 101.577C364.713 100.413 362.927 99.4575 361.045 98.7312C358.908 97.8296 356.757 96.9601 354.612 96.0766C350.173 94.2479 345.758 92.3391 341.276 90.6178C337.255 89.0734 333.01 87.8109 328.661 87.938C324.984 88.0711 321.39 89.0671 318.166 90.8463C314.942 92.6254 312.179 95.1381 310.098 98.1827C307.775 101.643 306.395 105.924 307.097 110.107C307.66 113.462 309.814 116.741 312.932 118.208C317.626 120.417 322.518 118.056 327.2 117.122C329.451 116.672 331.964 116.544 333.989 117.803C335.601 118.805 336.916 120.655 336.443 122.627C336.172 123.755 337.905 124.236 338.176 123.107Z" fill="#3F3D56"/>
<path d="M245.695 224.478C239.334 224.542 232.979 224.1 226.688 223.155C220.103 222.037 217.036 220.373 217.036 217.918L217.04 217.82L227.836 135.318L222.47 119.884C222.179 119.061 222.091 118.178 222.216 117.313C222.34 116.448 222.673 115.627 223.186 114.92C223.685 114.2 224.356 113.615 225.136 113.22C225.917 112.824 226.784 112.63 227.658 112.654L263.489 113.029C264.343 113.038 265.183 113.249 265.94 113.645C266.697 114.042 267.351 114.612 267.846 115.31C268.342 116.008 268.667 116.813 268.793 117.661C268.92 118.509 268.845 119.374 268.575 120.187L263.552 135.308L274.351 217.815V217.854C274.353 220.513 270.897 222.248 263.477 223.347C257.581 224.121 251.64 224.499 245.695 224.478ZM227.537 113.855C226.874 113.855 226.221 114.015 225.632 114.323C225.044 114.63 224.539 115.076 224.159 115.622C223.76 116.172 223.5 116.812 223.403 117.486C223.306 118.16 223.374 118.847 223.602 119.488L229.061 135.191L229.042 135.333L218.233 217.931L218.233 217.95C218.234 219.096 219.735 220.755 226.888 221.969C233.113 222.903 239.401 223.34 245.695 223.276C251.582 223.296 257.464 222.923 263.302 222.158C271.445 220.952 273.153 219.169 273.153 217.886L262.328 135.19L267.438 119.807C267.648 119.174 267.706 118.499 267.608 117.839C267.509 117.179 267.257 116.551 266.87 116.008C266.484 115.464 265.975 115.02 265.386 114.711C264.796 114.402 264.142 114.238 263.476 114.231L227.638 113.856C227.605 113.856 227.571 113.855 227.537 113.855Z" fill="white" fill-opacity="0.6"/>
<path opacity="0.5" d="M266.124 207.812H225.265L231.742 163.862L231.919 162.651L234.617 144.355C234.782 143.239 236.062 144.105 236.967 143.436C242.588 139.283 248.277 139.162 254.015 143.166C254.901 143.784 256.127 143.06 256.292 144.131L259.127 162.483L259.401 164.258L266.124 207.812Z" fill="#FF5259"/>
<path d="M261.081 213.966H230.264C229.456 213.966 228.658 213.791 227.924 213.454C227.189 213.116 226.536 212.624 226.008 212.01C225.48 211.396 225.09 210.676 224.865 209.897C224.64 209.119 224.584 208.301 224.703 207.499L233.706 146.403C233.753 146.09 233.881 145.796 234.077 145.549C234.273 145.302 234.531 145.112 234.824 144.997C235.118 144.882 235.436 144.847 235.747 144.896C236.058 144.944 236.351 145.074 236.596 145.273C242.083 149.684 248.064 149.584 254.371 144.979C254.615 144.799 254.902 144.687 255.203 144.651C255.504 144.616 255.809 144.66 256.088 144.778C256.373 144.895 256.623 145.085 256.813 145.328C257.003 145.571 257.128 145.859 257.174 146.165L266.637 207.46C266.762 208.265 266.711 209.087 266.489 209.869C266.266 210.652 265.878 211.377 265.35 211.996C264.822 212.614 264.168 213.11 263.431 213.45C262.694 213.79 261.892 213.966 261.081 213.966Z" fill="#FF5259"/>
<path d="M248.681 206.804H231.173V207.792H248.681V206.804Z" fill="white"/>
<path d="M248.681 200.876H231.173V201.864H248.681V200.876Z" fill="white"/>
<path d="M248.681 194.948H231.173V195.936H248.681V194.948Z" fill="white"/>
<path d="M248.681 189.021H231.173V190.008H248.681V189.021Z" fill="white"/>
<path d="M248.681 183.093H231.173V184.081H248.681V183.093Z" fill="white"/>
<path d="M260.226 167.542C258.869 168.895 257.235 169.937 255.438 170.597C253.641 171.257 251.722 171.519 249.815 171.365C247.675 171.106 245.609 170.412 243.745 169.325C241.771 168.263 239.861 166.994 237.675 166.401C235.76 165.882 233.491 165.813 231.847 167.097C231.712 167.202 231.548 167.261 231.378 167.265C231.208 167.27 231.041 167.219 230.902 167.122L231.089 165.838C232.002 165.244 233.026 164.846 234.099 164.666C235.172 164.487 236.271 164.531 237.326 164.796C241.717 165.685 245.05 169.33 249.549 169.854C251.49 170.073 253.455 169.805 255.267 169.074C257.079 168.343 258.682 167.171 259.931 165.665L259.936 165.66L260.226 167.542Z" fill="white"/>
<path d="M136.395 29.6908C135.786 42.9575 125.643 52.9582 112.431 53.7377C98.1441 54.5807 85.4097 45.3768 88.4671 29.6908C91.8719 12.2229 99.4464 8.20564 112.431 5.6439C127.647 2.64183 137.052 15.3564 136.395 29.6908Z" fill="#2F2E41"/>
<path d="M184.737 122.725C183.975 123.181 183.122 123.464 182.239 123.553C181.356 123.642 180.464 123.536 179.626 123.242C178.789 122.948 178.025 122.473 177.39 121.852C176.755 121.23 176.264 120.475 175.951 119.642L147.926 125.101L120.519 113.84L127.515 102.606L147.948 112.887L179.876 111.583C181.305 111.148 182.845 111.254 184.202 111.881C185.559 112.509 186.639 113.614 187.238 114.988C187.837 116.361 187.914 117.907 187.453 119.333C186.992 120.759 186.025 121.966 184.737 122.725Z" fill="#FFB6B6"/>
<path d="M98.56 99.9177C98.56 99.9177 96.679 102.524 102.862 105.35C107.812 107.612 134.399 122.049 141.855 123.253C141.93 124.312 142.353 125.317 143.06 126.108C143.766 126.899 144.714 127.432 145.755 127.623L149.965 112.45C148.069 109.431 145.962 110.53 144.907 111.448L136.725 104.98L114.206 90.7256L99.8863 98.0096L98.56 99.9177Z" fill="#F2F2F2"/>
<path d="M137.593 66.3626L127.125 64.5728L107.921 73.3818L97.1375 223.074L131.002 207.358C136.461 204.825 142.637 204.318 148.433 205.927C149.432 206.204 150.484 206.228 151.493 205.995C152.503 205.763 153.44 205.282 154.218 204.596C154.996 203.91 155.593 203.04 155.953 202.065C156.313 201.091 156.425 200.041 156.28 199.012L137.593 66.3626Z" fill="#F2F2F2"/>
<path d="M106.196 340.051H114.415L118.326 308.241H106.196V340.051Z" fill="#FFB6B6"/>
<path d="M101.859 354.34H107.752L108.805 348.757L111.499 354.34H127.131C127.88 354.34 128.61 354.1 129.214 353.655C129.817 353.209 130.263 352.582 130.486 351.864C130.709 351.146 130.698 350.375 130.453 349.664C130.209 348.954 129.744 348.34 129.128 347.913L116.644 339.261V333.616L103.514 334.403L101.859 354.34Z" fill="#2F2E41"/>
<path d="M65.238 322.502L71.8676 327.376L93.7586 304.036L83.9741 296.842L65.238 322.502Z" fill="#FFB6B6"/>
<path d="M53.3222 331.455L58.0765 334.951L62.214 331.071L61.0985 337.173L73.7081 346.444C74.3125 346.889 75.0426 347.128 75.7919 347.126C76.5412 347.125 77.2705 346.883 77.8732 346.436C78.4758 345.989 78.9204 345.361 79.142 344.643C79.3635 343.924 79.3505 343.154 79.1047 342.443L74.1307 328.061L77.4557 323.508L66.4011 316.354L53.3222 331.455Z" fill="#2F2E41"/>
<path d="M136.311 194.226C135.856 200.562 128.187 223.684 128.187 223.684L126.815 237.667L122.909 277.507L118.686 320.563C112.371 331.883 101.539 324.17 101.539 324.17V316.956C101.539 316.956 100.695 310.445 99.844 302.191C98.5859 290.053 97.3098 274.14 98.6518 269.559C98.5195 268.939 98.4195 268.313 98.3522 267.683C96.9743 256.958 93.6194 208.877 98.4122 203.737C91.1786 196.505 86.7825 186.902 86.0288 176.684C85.921 175.199 85.8311 173.642 85.7772 172.025C85.4118 161.805 92.3673 149.829 95.0872 145.573C95.7462 144.539 95.3898 142.832 95.3898 142.832L135.224 158.691L136.077 159.857V164.829L136.311 194.226Z" fill="#35323E"/>
<path d="M126.815 237.667L122.909 277.506L99.844 302.191L89.0363 313.757C77.1562 318.867 73.2501 306.128 73.2501 306.128L77.6295 300.411C77.6295 300.411 89.923 279.16 98.3522 267.683C100.683 264.515 102.72 262.086 104.116 261.064C107.267 258.768 116.786 246.287 125.725 234.096L126.815 237.667Z" fill="#35323E"/>
<path d="M84.9009 144.336C84.9433 145.221 85.1253 146.094 85.4401 146.921C85.4761 147.023 85.512 147.12 85.5539 147.222C86.2931 148.995 87.6058 150.467 89.2803 151.4C89.7732 151.679 90.2931 151.906 90.832 152.079L95.4989 152.831L135.632 159.269L137.244 154.406L134.207 146.783L136.219 140.23L136.493 102.068C141.109 92.9595 142.038 84.3886 136.675 76.7343V76.6862L129.384 65.0175L124.531 57.6411L108.967 57.1421L106.756 62.7691L102.389 65.3902C92.7072 71.1975 89.2204 81.8323 89.4301 93.1523C92.7671 106.12 90.3108 120.536 87.8245 135.992L85.7936 140.068C85.1354 141.39 84.828 142.86 84.9009 144.336Z" fill="#FF5259"/>
<path opacity="0.2" d="M84.9009 144.336C84.9433 145.221 85.1253 146.094 85.4401 146.921L89.2803 151.4C89.7732 151.679 90.2931 151.906 90.832 152.079L95.499 152.831L88.7471 140.092L103.587 107.49L84.9009 144.336Z" fill="black"/>
<path d="M121.417 68.1659L106.756 62.769L87.552 71.578L88.4671 133.093C82.7685 137.813 81.6209 144.617 85.7169 153.822L78.3108 209.644C78.1589 210.788 78.3162 211.953 78.7662 213.016C79.2161 214.078 79.9423 215.001 80.8687 215.685C81.7952 216.37 82.888 216.793 84.0329 216.91C85.1778 217.026 86.3328 216.831 87.3773 216.347L101.988 209.566C113.028 204.443 125.521 203.417 137.244 206.672L121.417 68.1659Z" fill="#F2F2F2"/>
<path d="M97.7867 38.0637C98.4692 43.0595 101.1 47.5791 105.102 50.6293C109.103 53.6796 114.148 55.0109 119.127 54.3309C124.106 53.6509 128.613 51.0151 131.656 47.0027C134.7 42.9903 136.032 37.9295 135.359 32.9323L135.322 32.6623C134.537 27.7323 131.851 23.3097 127.846 20.3486C123.84 17.3875 118.834 16.1251 113.91 16.8338C108.985 17.5426 104.535 20.1655 101.519 24.137C98.5043 28.1084 97.1658 33.11 97.7925 38.0629L97.7867 38.0637Z" fill="#FFB8B8"/>
<path d="M142.386 30.8935C138.26 31.9289 133.943 31.9289 129.817 30.8935C129.571 29.6573 129.121 28.4708 128.487 27.3826C128.406 28.5846 128.147 29.7678 127.72 30.8935C124.259 33.3012 116.42 31.9884 108.836 30.8935V11.6559H123.215C135.386 10.5613 144.219 19.0048 142.386 30.8935Z" fill="#2F2E41"/>
<path d="M106.067 2.04944C104.974 0.52066 102.815 -0.14647 100.878 0.0267581C98.9819 0.284153 97.1722 0.98258 95.5931 2.06632C92.8915 3.7364 90.458 5.80829 88.376 8.21121C86.5803 10.2931 85.0562 13.178 86.4642 15.5978C87.6391 17.617 90.5083 18.3977 92.8896 17.9485C95.271 17.4993 97.2617 16.0965 99.1052 14.6702C100.949 13.2438 102.789 11.7243 105.064 10.9628L103.229 10.8175C104.476 9.68101 105.518 8.33603 106.308 6.84233C106.688 6.09177 106.866 5.25447 106.823 4.41366C106.781 3.57285 106.52 2.75778 106.067 2.04944Z" fill="#2F2E41"/>
<path d="M123.814 14.6616H108.388C104.217 14.6616 100.217 16.3244 97.2673 19.284C94.3178 22.2437 92.6608 26.2579 92.6608 30.4435C92.6614 36.5397 94.9272 42.4166 99.0153 46.9259C103.104 51.4352 108.72 54.2529 114.768 54.8284L109.436 39.3097L119.731 54.9402H123.814C109.89 43.2813 113.795 29.3594 123.814 14.6616Z" fill="#2F2E41"/>
<path d="M171.476 347.815C169.466 347.835 167.458 347.696 165.471 347.398C163.62 347.084 162.682 346.638 162.682 346.072L162.683 346.062L166.135 319.687L164.396 314.686C164.323 314.476 164.302 314.251 164.334 314.031C164.365 313.811 164.449 313.602 164.579 313.421C164.708 313.241 164.879 313.094 165.076 312.993C165.274 312.893 165.493 312.842 165.715 312.844L177.148 312.963C177.366 312.966 177.58 313.019 177.773 313.12C177.965 313.221 178.132 313.367 178.258 313.545C178.384 313.722 178.467 313.928 178.499 314.144C178.532 314.359 178.512 314.58 178.444 314.787L176.816 319.686L180.268 346.062C180.269 347.448 174.742 347.815 171.476 347.815Z" fill="#F2F2F2"/>
<path d="M170.544 344.102H164.959V344.417H170.544V344.102Z" fill="#CCCCCC"/>
<path d="M170.544 342.211H164.959V342.527H170.544V342.211Z" fill="#CCCCCC"/>
<path d="M170.544 340.32H164.959V340.635H170.544V340.32Z" fill="#CCCCCC"/>
<path d="M170.544 338.43H164.959V338.745H170.544V338.43Z" fill="#CCCCCC"/>
<path d="M170.544 336.539H164.959V336.854H170.544V336.539Z" fill="#CCCCCC"/>
<path d="M221.724 347.815C219.715 347.835 217.707 347.696 215.719 347.398C213.869 347.084 212.931 346.638 212.931 346.072L212.931 346.062L216.383 319.687L214.645 314.686C214.572 314.476 214.55 314.251 214.582 314.031C214.614 313.811 214.698 313.602 214.827 313.421C214.956 313.241 215.127 313.094 215.325 312.993C215.522 312.893 215.741 312.842 215.963 312.844L227.397 312.963C227.614 312.966 227.828 313.019 228.021 313.12C228.214 313.221 228.38 313.367 228.506 313.545C228.633 313.722 228.715 313.928 228.748 314.144C228.78 314.359 228.761 314.58 228.692 314.787L227.065 319.686L230.517 346.062C230.518 347.448 224.99 347.815 221.724 347.815Z" fill="#F2F2F2"/>
<path d="M220.792 344.102H215.207V344.417H220.792V344.102Z" fill="#CCCCCC"/>
<path d="M220.792 342.211H215.207V342.527H220.792V342.211Z" fill="#CCCCCC"/>
<path d="M220.792 340.32H215.207V340.635H220.792V340.32Z" fill="#CCCCCC"/>
<path d="M220.792 338.43H215.207V338.745H220.792V338.43Z" fill="#CCCCCC"/>
<path d="M220.792 336.539H215.207V336.854H220.792V336.539Z" fill="#CCCCCC"/>
<path d="M198.17 347.815C196.161 347.835 194.153 347.696 192.165 347.398C190.315 347.084 189.377 346.638 189.377 346.072L189.377 346.062L192.829 319.687L191.091 314.686C191.018 314.476 190.996 314.251 191.028 314.031C191.06 313.811 191.144 313.602 191.273 313.421C191.402 313.241 191.573 313.094 191.771 312.993C191.968 312.893 192.187 312.842 192.409 312.844L203.843 312.963C204.06 312.966 204.274 313.019 204.467 313.12C204.66 313.221 204.826 313.367 204.953 313.545C205.079 313.722 205.162 313.928 205.194 314.144C205.226 314.359 205.207 314.58 205.138 314.787L203.511 319.686L206.963 346.062C206.964 347.448 201.436 347.815 198.17 347.815Z" fill="#F2F2F2"/>
<path d="M197.238 344.102H191.654V344.417H197.238V344.102Z" fill="#CCCCCC"/>
<path d="M197.238 342.211H191.654V342.527H197.238V342.211Z" fill="#CCCCCC"/>
<path d="M197.238 340.32H191.654V340.635H197.238V340.32Z" fill="#CCCCCC"/>
<path d="M197.238 338.43H191.654V338.745H197.238V338.43Z" fill="#CCCCCC"/>
<path d="M197.238 336.539H191.654V336.854H197.238V336.539Z" fill="#CCCCCC"/>
<path d="M235.307 349.774H224.629V331.811H235.307C235.889 331.81 236.447 331.578 236.859 331.164C237.27 330.75 237.502 330.19 237.502 329.605C237.502 329.021 237.27 328.46 236.859 328.047C236.447 327.633 235.889 327.4 235.307 327.399H160.876C160.294 327.4 159.736 327.633 159.324 328.047C158.913 328.46 158.682 329.021 158.682 329.605C158.682 330.19 158.913 330.75 159.324 331.164C159.736 331.578 160.294 331.81 160.876 331.811H169.984V349.774H160.876C160.294 349.775 159.736 350.008 159.324 350.422C158.913 350.835 158.682 351.396 158.682 351.98C158.682 352.565 158.913 353.125 159.324 353.539C159.736 353.953 160.294 354.185 160.876 354.186H235.307C235.889 354.185 236.447 353.953 236.859 353.539C237.27 353.125 237.502 352.565 237.502 351.98C237.502 351.396 237.27 350.835 236.859 350.422C236.447 350.008 235.889 349.775 235.307 349.774ZM174.381 349.774V331.811H220.232V349.774H174.381Z" fill="#CCCCCC"/>
<path d="M139.531 206.233V167.512C139.532 166.728 139.842 165.977 140.395 165.423C140.947 164.869 141.696 164.557 142.477 164.556H171.619C172.4 164.557 173.149 164.869 173.701 165.423C174.253 165.977 174.564 166.728 174.565 167.512V206.233C174.564 207.017 174.253 207.768 173.701 208.323C173.149 208.877 172.4 209.189 171.619 209.189H142.477C141.696 209.189 140.947 208.877 140.395 208.323C139.842 207.768 139.532 207.017 139.531 206.233Z" fill="#E6E6E6"/>
<path d="M141.766 194.538V169.644C141.767 168.91 142.058 168.207 142.575 167.688C143.092 167.169 143.794 166.877 144.525 166.876H169.57C170.302 166.877 171.003 167.169 171.52 167.688C172.038 168.207 172.328 168.91 172.329 169.644V204.101C172.328 204.835 172.038 205.539 171.52 206.058C171.003 206.577 170.302 206.869 169.57 206.869H154.055C150.797 206.866 147.674 205.565 145.37 203.254C143.066 200.942 141.77 197.807 141.766 194.538Z" fill="white"/>
<path d="M145.821 176.591C145.822 175.873 146.106 175.186 146.612 174.678C147.117 174.171 147.803 173.886 148.517 173.885H165.891C166.606 173.885 167.292 174.17 167.797 174.678C168.303 175.185 168.587 175.873 168.587 176.591C168.587 177.308 168.303 177.996 167.797 178.503C167.292 179.011 166.606 179.296 165.891 179.296H148.517C147.803 179.295 147.117 179.01 146.612 178.503C146.106 177.995 145.822 177.308 145.821 176.591Z" fill="#E6E6E6"/>
<path d="M145.821 185.007C145.822 184.29 146.106 183.602 146.612 183.095C147.117 182.588 147.803 182.303 148.517 182.302H165.891C166.606 182.302 167.292 182.587 167.797 183.094C168.303 183.601 168.587 184.29 168.587 185.007C168.587 185.725 168.303 186.413 167.797 186.92C167.292 187.427 166.606 187.712 165.891 187.712H148.517C147.803 187.712 147.117 187.426 146.612 186.919C146.106 186.412 145.822 185.724 145.821 185.007Z" fill="#E6E6E6"/>
<path d="M145.821 193.423C145.822 192.706 146.106 192.018 146.612 191.511C147.117 191.004 147.803 190.719 148.517 190.718H165.891C166.606 190.718 167.292 191.003 167.797 191.51C168.303 192.017 168.587 192.706 168.587 193.423C168.587 194.141 168.303 194.829 167.797 195.336C167.292 195.843 166.606 196.128 165.891 196.128H148.517C147.803 196.128 147.117 195.842 146.612 195.335C146.106 194.828 145.822 194.14 145.821 193.423Z" fill="#E6E6E6"/>
<path d="M140.025 168.727C139.205 168.387 138.469 167.871 137.869 167.215C137.27 166.558 136.821 165.778 136.554 164.928C136.287 164.079 136.21 163.181 136.326 162.299C136.443 161.416 136.75 160.569 137.228 159.819L116.098 140.557L108.685 111.784L121.841 110.686L125.862 133.264L146.011 158.151C147.215 159.04 148.051 160.341 148.362 161.807C148.673 163.274 148.438 164.804 147.7 166.107C146.962 167.411 145.773 168.398 144.359 168.881C142.944 169.364 141.402 169.309 140.025 168.727Z" fill="#FFB6B6"/>
<path d="M106.658 85.7989C106.658 85.7989 103.452 85.8465 104.896 92.5085C106.052 97.8419 110.439 127.855 113.94 134.57C113.139 135.264 112.59 136.206 112.381 137.247C112.172 138.288 112.314 139.37 112.785 140.321L127.419 134.624C128.694 131.293 126.555 130.257 125.191 129.959L125.459 119.51L123.361 92.8752L108.975 85.7231L106.658 85.7989Z" fill="#F2F2F2"/>
</g>
<defs>
<clipPath id="clip0_2812_82">
<rect width="450" height="355" fill="white"/>
</clipPath>
</defs>
</svg>
